<svg width="1280" height="720" viewBox="0 0 1280 720" fill="none" xmlns="http://www.w3.org/2000/svg">
<g clip-path="url(#clip0_1_185)">
<rect y="604" width="1280" height="116" fill="url(#paint0_linear_1_185)"/>
<rect width="1280" height="168" transform="matrix(1 0 0 -1 0 720)" fill="url(#paint1_linear_1_185)" fill-opacity="0.1"/>
<path d="M665.046 358.905C665.89 359.391 665.89 360.609 665.046 361.095L613.262 390.91C612.42 391.395 611.368 390.787 611.368 389.815L611.368 330.185C611.368 329.213 612.42 328.605 613.262 329.09L665.046 358.905Z" fill="white"/>
<path d="M50.394 28.6699C50.6 29.5001 51.7729 29.52 52.0069 28.6973C52.145 28.2117 52.6791 27.959 53.1421 28.16L53.8105 28.4502C54.2734 28.6513 54.4534 29.2141 54.1929 29.6464C53.7516 30.3791 54.5668 31.2225 55.314 30.8062C55.7549 30.5605 56.3113 30.7595 56.4965 31.229L56.7639 31.9069C56.9491 32.3764 56.6784 32.9016 56.1885 33.0232C55.3584 33.2291 55.3386 34.4019 56.1612 34.6359C56.6467 34.774 56.8995 35.3081 56.6985 35.7711L56.4082 36.4395C56.2072 36.9025 55.6444 37.0824 55.212 36.822C54.4793 36.3806 53.6359 37.1959 54.0522 37.9431C54.2979 38.384 54.0989 38.9404 53.6294 39.1257L52.9515 39.3931C52.482 39.5783 51.9568 39.3076 51.8352 38.8177C51.7048 38.2918 51.1862 38.091 50.7642 38.2237C52.4202 40.4884 53.3978 43.2806 53.3978 46.3011C53.3978 53.8668 47.2646 60 39.6989 60C32.1332 60 26 53.8668 26 46.3011C26 38.7354 32.1332 32.6022 39.6989 32.6022C42.1119 32.6022 44.3792 33.2261 46.3483 34.3214C46.8592 33.9408 46.7726 33.052 46.0681 32.8516C45.5826 32.7135 45.3298 32.1794 45.5309 31.7164L45.8211 31.048C46.0221 30.585 46.585 30.4051 47.0173 30.6656C47.75 31.1069 48.5933 30.2917 48.1771 29.5445C47.9314 29.1035 48.1303 28.5471 48.5999 28.3619L49.2777 28.0945C49.7472 27.9093 50.2725 28.18 50.394 28.6699ZM49.6188 36.8536C49.6255 36.8472 49.6321 36.8407 49.6387 36.8342L52.4926 33.9802C52.9384 33.5344 52.9384 32.8116 52.4926 32.3658C52.0468 31.92 51.324 31.92 50.8782 32.3658L48.0243 35.2197C47.9857 35.2583 47.9505 35.2989 47.9186 35.3413C48.5265 35.798 49.0953 36.304 49.6188 36.8536Z" fill="white"/>
<path fill-rule="evenodd" clip-rule="evenodd" d="M33.5369 50.3833C33.6751 50.2536 34.4242 49.1041 34.7757 49.3461C34.842 49.4095 34.9515 49.5046 35.1013 49.6342C35.5098 49.9513 35.9524 50.2219 36.4209 50.4409C37.9262 51.1391 39.6399 51.2421 41.2179 50.729C41.9849 50.5244 42.7038 50.1701 43.3332 49.6865C43.9627 49.2029 44.4903 48.5996 44.8856 47.9113C45.1228 47.5056 45.3086 47.0721 45.4388 46.6205C45.4662 46.4934 45.5245 46.2345 45.5245 46.2345C45.5678 45.9953 46.8592 46.2028 47.0983 46.2345C47.3374 46.2662 48.559 46.4736 48.5187 46.7502C48.5187 46.8021 48.5014 46.8683 48.487 46.949C48.4582 47.1103 48.4092 47.3293 48.3372 47.5944C47.9242 49.0668 47.1377 50.4074 46.0539 51.4862C44.97 52.565 43.6257 53.3453 42.1514 53.7513C39.8923 54.4639 37.4484 54.3057 35.3001 53.3076C34.631 52.995 33.999 52.6084 33.4158 52.1552C33.1969 51.9823 33.024 51.8325 32.903 51.7201C32.8425 51.6625 32.8079 51.6366 32.7705 51.602C32.589 51.4119 33.387 50.5245 33.5369 50.3833Z" fill="#BE322A"/>
<path d="M55.595 26.2702C55.595 26.4968 55.7831 26.6781 56.0098 26.6775C56.4889 26.6763 56.9476 26.6957 57.3821 26.6758C57.5858 26.6664 57.7392 26.4943 57.7392 26.2905V24.8625C57.7392 24.6415 57.5601 24.4625 57.3392 24.4625H55.995C55.7741 24.4625 55.595 24.6415 55.595 24.8625V26.2702Z" fill="white"/>
<path d="M44.2166 28.9861C44.2753 29.205 44.504 29.3315 44.7227 29.2722C45.1853 29.147 45.6333 29.0471 46.0479 28.9153C46.2422 28.8536 46.3458 28.6477 46.293 28.4507L45.9234 27.0714C45.8663 26.858 45.6469 26.7314 45.4335 26.7886L44.1351 27.1365C43.9218 27.1936 43.7951 27.413 43.8523 27.6264L44.2166 28.9861Z" fill="white"/>
<path d="M58.7105 33.6137C58.5972 33.81 58.6695 34.0611 58.8661 34.1739C59.2817 34.4124 59.6692 34.6586 60.0554 34.8586C60.2365 34.9523 60.4554 34.88 60.5573 34.7034L61.2713 33.4667C61.3818 33.2754 61.3162 33.0308 61.1249 32.9203L59.9608 32.2482C59.7695 32.1378 59.5248 32.2033 59.4144 32.3946L58.7105 33.6137Z" fill="white"/>
<path d="M77.584 47C77.4667 47 77.3707 46.9627 77.296 46.888C77.2213 46.8133 77.184 46.7173 77.184 46.6V36.2C77.184 36.0827 77.2213 35.9867 77.296 35.912C77.3707 35.8373 77.4667 35.8 77.584 35.8H81.6C82.6667 35.8 83.5573 35.9707 84.272 36.312C84.9867 36.6427 85.5307 37.1333 85.904 37.784C86.288 38.424 86.4907 39.2187 86.512 40.168C86.5227 40.6373 86.528 41.048 86.528 41.4C86.528 41.752 86.5227 42.1573 86.512 42.616C86.48 43.608 86.2827 44.4293 85.92 45.08C85.5573 45.7307 85.024 46.216 84.32 46.536C83.616 46.8453 82.736 47 81.68 47H77.584ZM79.728 44.936H81.6C82.1333 44.936 82.5707 44.856 82.912 44.696C83.2533 44.536 83.504 44.2853 83.664 43.944C83.8347 43.592 83.9253 43.1387 83.936 42.584C83.9467 42.2747 83.952 41.9973 83.952 41.752C83.9627 41.5067 83.9627 41.2613 83.952 41.016C83.952 40.7707 83.9467 40.4987 83.936 40.2C83.9147 39.4 83.7067 38.8133 83.312 38.44C82.928 38.056 82.3307 37.864 81.52 37.864H79.728V44.936ZM92.0638 47.16C90.8371 47.16 89.8611 46.8187 89.1358 46.136C88.4211 45.4533 88.0424 44.4613 87.9998 43.16C87.9998 43.0747 87.9998 42.9627 87.9998 42.824C87.9998 42.6747 87.9998 42.5573 87.9998 42.472C88.0424 41.6507 88.2291 40.9467 88.5598 40.36C88.8904 39.7627 89.3544 39.3093 89.9518 39C90.5491 38.68 91.2478 38.52 92.0477 38.52C92.9438 38.52 93.6904 38.7067 94.2878 39.08C94.8958 39.4427 95.3491 39.944 95.6478 40.584C95.9571 41.2133 96.1118 41.9387 96.1118 42.76V43.128C96.1118 43.2347 96.0691 43.3253 95.9838 43.4C95.9091 43.4747 95.8184 43.512 95.7118 43.512H90.4798C90.4798 43.5227 90.4798 43.544 90.4798 43.576C90.4798 43.5973 90.4798 43.6187 90.4798 43.64C90.4904 43.9813 90.5544 44.296 90.6718 44.584C90.7998 44.8613 90.9758 45.0853 91.1998 45.256C91.4344 45.4267 91.7118 45.512 92.0318 45.512C92.2984 45.512 92.5171 45.4747 92.6878 45.4C92.8584 45.3253 92.9971 45.2347 93.1038 45.128C93.2211 45.0213 93.3064 44.9307 93.3598 44.856C93.4558 44.7493 93.5304 44.6853 93.5838 44.664C93.6478 44.632 93.7438 44.616 93.8718 44.616H95.5358C95.6424 44.616 95.7278 44.648 95.7917 44.712C95.8664 44.7653 95.8984 44.8453 95.8878 44.952C95.8771 45.1227 95.7864 45.336 95.6158 45.592C95.4558 45.8373 95.2158 46.0827 94.8958 46.328C94.5758 46.5627 94.1758 46.76 93.6958 46.92C93.2264 47.08 92.6824 47.16 92.0638 47.16ZM90.4798 42.056H93.6158V42.024C93.6158 41.64 93.5518 41.3093 93.4238 41.032C93.3064 40.744 93.1304 40.52 92.8958 40.36C92.6611 40.2 92.3784 40.12 92.0477 40.12C91.7171 40.12 91.4344 40.2 91.1998 40.36C90.9651 40.52 90.7838 40.744 90.6558 41.032C90.5384 41.3093 90.4798 41.64 90.4798 42.024V42.056ZM100.991 47.16C100.33 47.16 99.7591 47.0853 99.2791 46.936C98.8098 46.776 98.4258 46.584 98.1271 46.36C97.8391 46.136 97.6205 45.912 97.4711 45.688C97.3325 45.4533 97.2578 45.256 97.2471 45.096C97.2365 44.9787 97.2738 44.8827 97.3591 44.808C97.4445 44.7333 97.5298 44.696 97.6151 44.696H99.1671C99.1991 44.696 99.2311 44.7013 99.2631 44.712C99.2951 44.7227 99.3271 44.7493 99.3591 44.792C99.4978 44.888 99.6418 45 99.7911 45.128C99.9405 45.2453 100.111 45.3467 100.303 45.432C100.506 45.5173 100.756 45.56 101.055 45.56C101.407 45.56 101.706 45.4907 101.951 45.352C102.196 45.2027 102.319 44.9947 102.319 44.728C102.319 44.536 102.26 44.376 102.143 44.248C102.036 44.12 101.828 44.0027 101.519 43.896C101.21 43.7893 100.751 43.672 100.143 43.544C99.5671 43.416 99.0765 43.2453 98.6711 43.032C98.2658 42.8187 97.9618 42.552 97.7591 42.232C97.5565 41.9013 97.4551 41.5067 97.4551 41.048C97.4551 40.632 97.5831 40.232 97.8391 39.848C98.1058 39.464 98.4951 39.1493 99.0071 38.904C99.5191 38.648 100.159 38.52 100.927 38.52C101.514 38.52 102.026 38.5947 102.463 38.744C102.911 38.8827 103.284 39.064 103.583 39.288C103.882 39.5013 104.106 39.7253 104.255 39.96C104.415 40.184 104.5 40.3813 104.511 40.552C104.522 40.6587 104.49 40.7493 104.415 40.824C104.34 40.8987 104.255 40.936 104.159 40.936H102.735C102.682 40.936 102.634 40.9307 102.591 40.92C102.548 40.8987 102.511 40.872 102.479 40.84C102.351 40.7547 102.218 40.6587 102.079 40.552C101.951 40.4347 101.796 40.3333 101.615 40.248C101.434 40.1627 101.199 40.12 100.911 40.12C100.559 40.12 100.287 40.2 100.095 40.36C99.9138 40.5093 99.8231 40.7013 99.8231 40.936C99.8231 41.0853 99.8711 41.224 99.9671 41.352C100.063 41.48 100.26 41.5973 100.559 41.704C100.858 41.8107 101.311 41.9227 101.919 42.04C102.644 42.168 103.22 42.36 103.647 42.616C104.074 42.872 104.378 43.1707 104.559 43.512C104.751 43.8427 104.847 44.2 104.847 44.584C104.847 45.0853 104.698 45.5333 104.399 45.928C104.1 46.312 103.663 46.616 103.087 46.84C102.522 47.0533 101.823 47.16 100.991 47.16ZM106.767 47C106.66 47 106.57 46.9627 106.495 46.888C106.42 46.8133 106.383 46.7173 106.383 46.6V39.08C106.383 38.9627 106.42 38.8667 106.495 38.792C106.57 38.7173 106.66 38.68 106.767 38.68H108.367C108.484 38.68 108.58 38.7173 108.655 38.792C108.73 38.8667 108.767 38.9627 108.767 39.08V46.6C108.767 46.7173 108.73 46.8133 108.655 46.888C108.58 46.9627 108.484 47 108.367 47H106.767ZM106.719 37.4C106.612 37.4 106.522 37.3627 106.447 37.288C106.372 37.2133 106.335 37.1173 106.335 37V35.72C106.335 35.6027 106.372 35.5067 106.447 35.432C106.522 35.3467 106.612 35.304 106.719 35.304H108.399C108.516 35.304 108.612 35.3467 108.687 35.432C108.772 35.5067 108.815 35.6027 108.815 35.72V37C108.815 37.1173 108.772 37.2133 108.687 37.288C108.612 37.3627 108.516 37.4 108.399 37.4H106.719ZM114.678 50.52C113.888 50.52 113.232 50.4133 112.71 50.2C112.187 49.9973 111.771 49.7467 111.462 49.448C111.163 49.16 110.95 48.872 110.822 48.584C110.694 48.296 110.624 48.072 110.614 47.912C110.603 47.7947 110.64 47.6987 110.726 47.624C110.811 47.5493 110.907 47.512 111.014 47.512H112.726C112.822 47.512 112.902 47.5333 112.966 47.576C113.04 47.6293 113.099 47.7147 113.142 47.832C113.195 47.96 113.27 48.0933 113.366 48.232C113.462 48.3813 113.606 48.504 113.798 48.6C114 48.696 114.267 48.744 114.598 48.744C114.971 48.744 115.28 48.6907 115.526 48.584C115.771 48.4773 115.952 48.296 116.07 48.04C116.198 47.784 116.262 47.4373 116.262 47V45.928C116.006 46.2053 115.68 46.4347 115.286 46.616C114.902 46.7973 114.427 46.888 113.862 46.888C113.307 46.888 112.816 46.8027 112.39 46.632C111.974 46.4507 111.627 46.2 111.35 45.88C111.072 45.5493 110.859 45.1547 110.71 44.696C110.56 44.2373 110.475 43.72 110.454 43.144C110.443 42.856 110.443 42.5733 110.454 42.296C110.475 41.7413 110.56 41.2347 110.71 40.776C110.859 40.3173 111.072 39.9227 111.35 39.592C111.627 39.2507 111.974 38.9893 112.39 38.808C112.816 38.616 113.307 38.52 113.862 38.52C114.448 38.52 114.95 38.632 115.366 38.856C115.782 39.08 116.123 39.3573 116.39 39.688V39.08C116.39 38.9733 116.427 38.8827 116.502 38.808C116.576 38.7227 116.667 38.68 116.774 38.68H118.342C118.448 38.68 118.539 38.7227 118.614 38.808C118.699 38.8827 118.742 38.9733 118.742 39.08L118.758 46.776C118.758 47.576 118.603 48.2533 118.294 48.808C117.984 49.3627 117.526 49.784 116.918 50.072C116.32 50.3707 115.574 50.52 114.678 50.52ZM114.598 45.016C114.982 45.016 115.291 44.9307 115.526 44.76C115.771 44.5787 115.952 44.3547 116.07 44.088C116.187 43.8107 116.251 43.5227 116.262 43.224C116.272 43.1067 116.278 42.9413 116.278 42.728C116.278 42.504 116.272 42.3333 116.262 42.216C116.251 41.9173 116.187 41.6347 116.07 41.368C115.952 41.0907 115.771 40.8667 115.526 40.696C115.291 40.5253 114.982 40.44 114.598 40.44C114.192 40.44 113.872 40.5307 113.638 40.712C113.403 40.8827 113.232 41.112 113.126 41.4C113.019 41.688 112.955 42.0027 112.934 42.344C112.923 42.6 112.923 42.8507 112.934 43.096C112.955 43.448 113.019 43.768 113.126 44.056C113.232 44.344 113.403 44.5787 113.638 44.76C113.872 44.9307 114.192 45.016 114.598 45.016ZM121.158 47C121.051 47 120.96 46.9627 120.886 46.888C120.811 46.8133 120.774 46.7173 120.774 46.6V39.08C120.774 38.9627 120.811 38.8667 120.886 38.792C120.96 38.7173 121.051 38.68 121.158 38.68H122.726C122.843 38.68 122.939 38.7173 123.014 38.792C123.088 38.8667 123.126 38.9627 123.126 39.08V39.704C123.403 39.3627 123.76 39.08 124.198 38.856C124.635 38.632 125.168 38.52 125.798 38.52C126.427 38.52 126.976 38.664 127.446 38.952C127.926 39.2293 128.299 39.64 128.566 40.184C128.843 40.7173 128.982 41.368 128.982 42.136V46.6C128.982 46.7173 128.939 46.8133 128.854 46.888C128.779 46.9627 128.688 47 128.582 47H126.886C126.768 47 126.672 46.9627 126.598 46.888C126.523 46.8133 126.486 46.7173 126.486 46.6V42.232C126.486 41.6667 126.347 41.2293 126.07 40.92C125.803 40.6 125.408 40.44 124.886 40.44C124.384 40.44 123.984 40.6 123.686 40.92C123.387 41.2293 123.238 41.6667 123.238 42.232V46.6C123.238 46.7173 123.2 46.8133 123.126 46.888C123.051 46.9627 122.96 47 122.854 47H121.158ZM135.006 47C134.889 47 134.793 46.9627 134.718 46.888C134.643 46.8133 134.606 46.7173 134.606 46.6V36.2C134.606 36.0827 134.643 35.9867 134.718 35.912C134.793 35.8373 134.889 35.8 135.006 35.8H139.758C140.643 35.8 141.369 35.928 141.934 36.184C142.499 36.44 142.915 36.8027 143.182 37.272C143.459 37.7413 143.598 38.2907 143.598 38.92C143.598 39.3147 143.523 39.6613 143.374 39.96C143.235 40.2587 143.059 40.504 142.846 40.696C142.643 40.888 142.446 41.032 142.254 41.128C142.67 41.32 143.033 41.64 143.342 42.088C143.662 42.5253 143.822 43.048 143.822 43.656C143.822 44.328 143.673 44.9147 143.374 45.416C143.075 45.9173 142.633 46.3067 142.046 46.584C141.459 46.8613 140.745 47 139.902 47H135.006ZM137.15 45.128H139.598C140.121 45.128 140.515 44.984 140.782 44.696C141.049 44.3973 141.182 44.0453 141.182 43.64C141.182 43.224 141.043 42.8773 140.766 42.6C140.499 42.312 140.11 42.168 139.598 42.168H137.15V45.128ZM137.15 40.328H139.454C139.955 40.328 140.329 40.2053 140.574 39.96C140.83 39.704 140.958 39.3787 140.958 38.984C140.958 38.5893 140.83 38.2747 140.574 38.04C140.329 37.7947 139.955 37.672 139.454 37.672H137.15V40.328ZM148.003 47.16C147.438 47.16 146.931 47.0533 146.483 46.84C146.035 46.616 145.678 46.3173 145.411 45.944C145.144 45.5707 145.011 45.1547 145.011 44.696C145.011 43.9387 145.315 43.3413 145.923 42.904C146.542 42.4667 147.352 42.168 148.355 42.008L150.451 41.704V41.416C150.451 41 150.355 40.68 150.163 40.456C149.971 40.232 149.635 40.12 149.155 40.12C148.803 40.12 148.52 40.1893 148.307 40.328C148.094 40.4667 147.928 40.648 147.811 40.872C147.726 41.0107 147.603 41.08 147.443 41.08H145.923C145.806 41.08 145.715 41.048 145.651 40.984C145.587 40.9093 145.56 40.824 145.571 40.728C145.571 40.5467 145.64 40.3333 145.779 40.088C145.918 39.8427 146.131 39.6027 146.419 39.368C146.707 39.1227 147.075 38.92 147.523 38.76C147.971 38.6 148.52 38.52 149.171 38.52C149.843 38.52 150.419 38.6 150.899 38.76C151.379 38.92 151.763 39.144 152.051 39.432C152.339 39.72 152.552 40.056 152.691 40.44C152.83 40.8133 152.899 41.2187 152.899 41.656V46.6C152.899 46.7173 152.862 46.8133 152.787 46.888C152.712 46.9627 152.616 47 152.499 47H150.931C150.824 47 150.734 46.9627 150.659 46.888C150.584 46.8133 150.547 46.7173 150.547 46.6V46.008C150.408 46.2107 150.222 46.4027 149.987 46.584C149.752 46.7547 149.47 46.8933 149.139 47C148.819 47.1067 148.44 47.16 148.003 47.16ZM148.643 45.496C148.995 45.496 149.31 45.4213 149.587 45.272C149.864 45.1227 150.083 44.8933 150.243 44.584C150.403 44.2747 150.483 43.8853 150.483 43.416V43.144L148.995 43.384C148.419 43.48 147.998 43.624 147.731 43.816C147.464 44.008 147.331 44.2427 147.331 44.52C147.331 44.7227 147.39 44.8987 147.507 45.048C147.635 45.1973 147.8 45.3093 148.003 45.384C148.206 45.4587 148.419 45.496 148.643 45.496ZM158.774 47C158.112 47 157.547 46.8933 157.078 46.68C156.608 46.456 156.251 46.1147 156.006 45.656C155.771 45.1973 155.654 44.6213 155.654 43.928V40.568H154.406C154.288 40.568 154.192 40.5307 154.118 40.456C154.043 40.3813 154.006 40.2853 154.006 40.168V39.08C154.006 38.9627 154.043 38.8667 154.118 38.792C154.192 38.7173 154.288 38.68 154.406 38.68H155.654V36.04C155.654 35.9227 155.691 35.8267 155.766 35.752C155.851 35.6773 155.947 35.64 156.054 35.64H157.622C157.739 35.64 157.835 35.6773 157.91 35.752C157.984 35.8267 158.022 35.9227 158.022 36.04V38.68H160.022C160.128 38.68 160.219 38.7173 160.294 38.792C160.368 38.8667 160.406 38.9627 160.406 39.08V40.168C160.406 40.2853 160.368 40.3813 160.294 40.456C160.219 40.5307 160.128 40.568 160.022 40.568H158.022V43.736C158.022 44.1413 158.091 44.4613 158.23 44.696C158.379 44.92 158.635 45.032 158.998 45.032H160.166C160.272 45.032 160.363 45.0693 160.438 45.144C160.512 45.2187 160.55 45.3093 160.55 45.416V46.6C160.55 46.7173 160.512 46.8133 160.438 46.888C160.363 46.9627 160.272 47 160.166 47H158.774ZM165.946 47C165.284 47 164.719 46.8933 164.25 46.68C163.78 46.456 163.423 46.1147 163.178 45.656C162.943 45.1973 162.826 44.6213 162.826 43.928V40.568H161.578C161.46 40.568 161.364 40.5307 161.29 40.456C161.215 40.3813 161.178 40.2853 161.178 40.168V39.08C161.178 38.9627 161.215 38.8667 161.29 38.792C161.364 38.7173 161.46 38.68 161.578 38.68H162.826V36.04C162.826 35.9227 162.863 35.8267 162.938 35.752C163.023 35.6773 163.119 35.64 163.226 35.64H164.794C164.911 35.64 165.007 35.6773 165.082 35.752C165.156 35.8267 165.194 35.9227 165.194 36.04V38.68H167.194C167.3 38.68 167.391 38.7173 167.466 38.792C167.54 38.8667 167.578 38.9627 167.578 39.08V40.168C167.578 40.2853 167.54 40.3813 167.466 40.456C167.391 40.5307 167.3 40.568 167.194 40.568H165.194V43.736C165.194 44.1413 165.263 44.4613 165.402 44.696C165.551 44.92 165.807 45.032 166.17 45.032H167.338C167.444 45.032 167.535 45.0693 167.61 45.144C167.684 45.2187 167.722 45.3093 167.722 45.416V46.6C167.722 46.7173 167.684 46.8133 167.61 46.888C167.535 46.9627 167.444 47 167.338 47H165.946ZM169.517 47C169.4 47 169.304 46.9627 169.229 46.888C169.155 46.8133 169.117 46.7173 169.117 46.6V36.04C169.117 35.9227 169.155 35.8267 169.229 35.752C169.304 35.6773 169.4 35.64 169.517 35.64H171.117C171.224 35.64 171.315 35.6773 171.389 35.752C171.464 35.8267 171.501 35.9227 171.501 36.04V46.6C171.501 46.7173 171.464 46.8133 171.389 46.888C171.315 46.9627 171.224 47 171.117 47H169.517ZM177.236 47.16C176.009 47.16 175.033 46.8187 174.308 46.136C173.593 45.4533 173.214 44.4613 173.172 43.16C173.172 43.0747 173.172 42.9627 173.172 42.824C173.172 42.6747 173.172 42.5573 173.172 42.472C173.214 41.6507 173.401 40.9467 173.732 40.36C174.062 39.7627 174.526 39.3093 175.124 39C175.721 38.68 176.42 38.52 177.22 38.52C178.116 38.52 178.862 38.7067 179.46 39.08C180.068 39.4427 180.521 39.944 180.82 40.584C181.129 41.2133 181.284 41.9387 181.284 42.76V43.128C181.284 43.2347 181.241 43.3253 181.156 43.4C181.081 43.4747 180.99 43.512 180.884 43.512H175.652C175.652 43.5227 175.652 43.544 175.652 43.576C175.652 43.5973 175.652 43.6187 175.652 43.64C175.662 43.9813 175.726 44.296 175.844 44.584C175.972 44.8613 176.148 45.0853 176.372 45.256C176.606 45.4267 176.884 45.512 177.204 45.512C177.47 45.512 177.689 45.4747 177.86 45.4C178.03 45.3253 178.169 45.2347 178.276 45.128C178.393 45.0213 178.478 44.9307 178.532 44.856C178.628 44.7493 178.702 44.6853 178.756 44.664C178.82 44.632 178.916 44.616 179.044 44.616H180.708C180.814 44.616 180.9 44.648 180.964 44.712C181.038 44.7653 181.07 44.8453 181.06 44.952C181.049 45.1227 180.958 45.336 180.788 45.592C180.628 45.8373 180.388 46.0827 180.068 46.328C179.748 46.5627 179.348 46.76 178.868 46.92C178.398 47.08 177.854 47.16 177.236 47.16ZM175.652 42.056H178.788V42.024C178.788 41.64 178.724 41.3093 178.596 41.032C178.478 40.744 178.302 40.52 178.068 40.36C177.833 40.2 177.55 40.12 177.22 40.12C176.889 40.12 176.606 40.2 176.372 40.36C176.137 40.52 175.956 40.744 175.828 41.032C175.71 41.3093 175.652 41.64 175.652 42.024V42.056ZM186.163 47.16C185.502 47.16 184.931 47.0853 184.451 46.936C183.982 46.776 183.598 46.584 183.299 46.36C183.011 46.136 182.792 45.912 182.643 45.688C182.504 45.4533 182.43 45.256 182.419 45.096C182.408 44.9787 182.446 44.8827 182.531 44.808C182.616 44.7333 182.702 44.696 182.787 44.696H184.339C184.371 44.696 184.403 44.7013 184.435 44.712C184.467 44.7227 184.499 44.7493 184.531 44.792C184.67 44.888 184.814 45 184.963 45.128C185.112 45.2453 185.283 45.3467 185.475 45.432C185.678 45.5173 185.928 45.56 186.227 45.56C186.579 45.56 186.878 45.4907 187.123 45.352C187.368 45.2027 187.491 44.9947 187.491 44.728C187.491 44.536 187.432 44.376 187.315 44.248C187.208 44.12 187 44.0027 186.691 43.896C186.382 43.7893 185.923 43.672 185.315 43.544C184.739 43.416 184.248 43.2453 183.843 43.032C183.438 42.8187 183.134 42.552 182.931 42.232C182.728 41.9013 182.627 41.5067 182.627 41.048C182.627 40.632 182.755 40.232 183.011 39.848C183.278 39.464 183.667 39.1493 184.179 38.904C184.691 38.648 185.331 38.52 186.099 38.52C186.686 38.52 187.198 38.5947 187.635 38.744C188.083 38.8827 188.456 39.064 188.755 39.288C189.054 39.5013 189.278 39.7253 189.427 39.96C189.587 40.184 189.672 40.3813 189.683 40.552C189.694 40.6587 189.662 40.7493 189.587 40.824C189.512 40.8987 189.427 40.936 189.331 40.936H187.907C187.854 40.936 187.806 40.9307 187.763 40.92C187.72 40.8987 187.683 40.872 187.651 40.84C187.523 40.7547 187.39 40.6587 187.251 40.552C187.123 40.4347 186.968 40.3333 186.787 40.248C186.606 40.1627 186.371 40.12 186.083 40.12C185.731 40.12 185.459 40.2 185.267 40.36C185.086 40.5093 184.995 40.7013 184.995 40.936C184.995 41.0853 185.043 41.224 185.139 41.352C185.235 41.48 185.432 41.5973 185.731 41.704C186.03 41.8107 186.483 41.9227 187.091 42.04C187.816 42.168 188.392 42.36 188.819 42.616C189.246 42.872 189.55 43.1707 189.731 43.512C189.923 43.8427 190.019 44.2 190.019 44.584C190.019 45.0853 189.87 45.5333 189.571 45.928C189.272 46.312 188.835 46.616 188.259 46.84C187.694 47.0533 186.995 47.16 186.163 47.16Z" fill="white"/>
<g opacity="0.6">
<path d="M42.3027 675.811C43.9904 676.782 43.9904 679.218 42.3027 680.189L29.05 687.82C27.3658 688.789 25.2632 687.574 25.2632 685.63L25.2632 670.37C25.2632 668.426 27.3658 667.211 29.05 668.18L42.3027 675.811Z" fill="white"/>
</g>
<rect opacity="0.6" x="72" y="676" width="543" height="4" rx="2" fill="white"/>
<rect x="611" y="673" width="10" height="10" rx="5" fill="white"/>
<rect opacity="0.2" x="617" y="676" width="543" height="4" rx="2" fill="white"/>
<g opacity="0.6">
<path d="M1206.31 676.05C1206.29 675.945 1206.24 675.845 1206.18 675.758C1206.12 675.67 1206.04 675.597 1205.94 675.544L1203.15 673.95L1203.14 670.799C1203.13 670.69 1203.11 670.583 1203.07 670.484C1203.02 670.386 1202.95 670.299 1202.87 670.229C1201.86 669.37 1200.69 668.713 1199.43 668.291C1199.33 668.257 1199.22 668.245 1199.12 668.254C1199.01 668.264 1198.91 668.295 1198.82 668.346L1196 669.923L1193.18 668.343C1193.09 668.292 1192.98 668.26 1192.88 668.251C1192.78 668.241 1192.67 668.253 1192.57 668.287C1191.31 668.712 1190.14 669.372 1189.13 670.232C1189.05 670.302 1188.98 670.389 1188.94 670.488C1188.89 670.586 1188.87 670.693 1188.87 670.801L1188.85 673.956L1186.06 675.55C1185.96 675.603 1185.88 675.676 1185.82 675.763C1185.76 675.851 1185.71 675.95 1185.69 676.056C1185.44 677.342 1185.44 678.666 1185.69 679.952C1185.71 680.058 1185.76 680.158 1185.82 680.245C1185.88 680.333 1185.96 680.405 1186.06 680.459L1188.85 682.052L1188.86 685.205C1188.86 685.314 1188.89 685.421 1188.93 685.519C1188.98 685.618 1189.05 685.705 1189.13 685.775C1190.14 686.633 1191.31 687.291 1192.57 687.713C1192.67 687.747 1192.78 687.759 1192.88 687.749C1192.98 687.74 1193.09 687.709 1193.18 687.658L1196 686.076L1198.82 687.656C1198.94 687.718 1199.06 687.75 1199.19 687.749C1199.27 687.749 1199.35 687.736 1199.43 687.71C1200.69 687.285 1201.86 686.626 1202.87 685.767C1202.95 685.697 1203.02 685.609 1203.07 685.511C1203.11 685.413 1203.13 685.306 1203.14 685.198L1203.15 682.043L1205.95 680.449C1206.04 680.396 1206.12 680.323 1206.18 680.236C1206.25 680.148 1206.29 680.049 1206.31 679.943C1206.57 678.658 1206.56 677.335 1206.31 676.05ZM1196 681.749C1195.26 681.749 1194.53 681.53 1193.92 681.118C1193.3 680.705 1192.82 680.12 1192.54 679.435C1192.25 678.749 1192.18 677.995 1192.32 677.268C1192.47 676.54 1192.82 675.872 1193.35 675.348C1193.87 674.823 1194.54 674.466 1195.27 674.322C1196 674.177 1196.75 674.251 1197.44 674.535C1198.12 674.819 1198.71 675.299 1199.12 675.916C1199.53 676.533 1199.75 677.258 1199.75 677.999C1199.75 678.994 1199.36 679.948 1198.65 680.651C1197.95 681.354 1197 681.749 1196 681.749Z" fill="white"/>
</g>
<g opacity="0.6">
<path d="M1233.5 674.438V668.625C1233.5 668.002 1234 667.5 1234.62 667.5H1240.44C1240.75 667.5 1241 667.753 1241 668.062V669.938C1241 670.247 1240.75 670.5 1240.44 670.5H1236.5V674.438C1236.5 674.747 1236.25 675 1235.94 675H1234.06C1233.75 675 1233.5 674.747 1233.5 674.438ZM1247 668.062V669.938C1247 670.247 1247.25 670.5 1247.56 670.5H1251.5V674.438C1251.5 674.747 1251.75 675 1252.06 675H1253.94C1254.25 675 1254.5 674.747 1254.5 674.438V668.625C1254.5 668.002 1254 667.5 1253.38 667.5H1247.56C1247.25 667.5 1247 667.753 1247 668.062ZM1253.94 681H1252.06C1251.75 681 1251.5 681.253 1251.5 681.562V685.5H1247.56C1247.25 685.5 1247 685.753 1247 686.062V687.938C1247 688.247 1247.25 688.5 1247.56 688.5H1253.38C1254 688.5 1254.5 687.998 1254.5 687.375V681.562C1254.5 681.253 1254.25 681 1253.94 681ZM1241 687.938V686.062C1241 685.753 1240.75 685.5 1240.44 685.5H1236.5V681.562C1236.5 681.253 1236.25 681 1235.94 681H1234.06C1233.75 681 1233.5 681.253 1233.5 681.562V687.375C1233.5 687.998 1234 688.5 1234.62 688.5H1240.44C1240.75 688.5 1241 688.247 1241 687.938Z" fill="white"/>
</g>
</g>
<defs>
<linearGradient id="paint0_linear_1_185" x1="640" y1="604" x2="640" y2="720" gradientUnits="userSpaceOnUse">
<stop stop-opacity="0"/>
<stop offset="1" stop-opacity="0.2"/>
</linearGradient>
<linearGradient id="paint1_linear_1_185" x1="640" y1="0" x2="640" y2="168" gradientUnits="userSpaceOnUse">
<stop/>
<stop offset="1" stop-opacity="0"/>
</linearGradient>
<clipPath id="clip0_1_185">
<rect width="1280" height="720" rx="12" fill="white"/>
</clipPath>
</defs>
</svg>
