<svg width="1280" height="720" viewBox="0 0 1280 720" fill="none" xmlns="http://www.w3.org/2000/svg">
<rect width="1280" height="720" rx="12" fill="#3A3939" fill-opacity="0.06"/>
<rect y="604" width="1280" height="116" fill="url(#paint0_linear_1_185)"/>
<rect width="1280" height="168" transform="matrix(1 0 0 -1 0 720)" fill="url(#paint1_linear_1_185)" fill-opacity="0.1"/>
<rect opacity="0.2" x="72" y="676" width="1088" height="4" rx="2" fill="white"/>
<g opacity="0.6">
<path d="M1206.31 676.05C1206.29 675.945 1206.24 675.845 1206.18 675.758C1206.12 675.67 1206.04 675.597 1205.94 675.544L1203.15 673.95L1203.14 670.799C1203.14 670.69 1203.11 670.583 1203.07 670.484C1203.02 670.386 1202.95 670.299 1202.87 670.229C1201.86 669.37 1200.69 668.713 1199.43 668.291C1199.33 668.257 1199.22 668.245 1199.12 668.254C1199.01 668.264 1198.91 668.295 1198.82 668.346L1196 669.923L1193.18 668.343C1193.09 668.292 1192.98 668.26 1192.88 668.251C1192.78 668.241 1192.67 668.253 1192.57 668.287C1191.31 668.712 1190.14 669.372 1189.13 670.232C1189.05 670.302 1188.98 670.389 1188.94 670.488C1188.89 670.586 1188.87 670.693 1188.87 670.801L1188.85 673.956L1186.06 675.55C1185.96 675.603 1185.88 675.676 1185.82 675.763C1185.76 675.851 1185.71 675.95 1185.69 676.056C1185.44 677.342 1185.44 678.666 1185.69 679.952C1185.71 680.058 1185.76 680.158 1185.82 680.245C1185.88 680.333 1185.96 680.405 1186.06 680.459L1188.85 682.052L1188.86 685.205C1188.86 685.314 1188.89 685.421 1188.93 685.519C1188.98 685.618 1189.05 685.705 1189.13 685.775C1190.14 686.633 1191.31 687.291 1192.57 687.713C1192.67 687.747 1192.78 687.759 1192.88 687.749C1192.98 687.74 1193.09 687.709 1193.18 687.658L1196 686.076L1198.82 687.656C1198.94 687.718 1199.06 687.75 1199.19 687.749C1199.27 687.749 1199.35 687.736 1199.43 687.71C1200.69 687.285 1201.86 686.626 1202.87 685.767C1202.95 685.697 1203.02 685.609 1203.07 685.511C1203.11 685.413 1203.13 685.306 1203.14 685.198L1203.15 682.043L1205.95 680.449C1206.04 680.396 1206.12 680.323 1206.18 680.236C1206.25 680.148 1206.29 680.049 1206.31 679.943C1206.57 678.658 1206.56 677.335 1206.31 676.05ZM1196 681.749C1195.26 681.749 1194.53 681.53 1193.92 681.118C1193.3 680.705 1192.82 680.12 1192.54 679.435C1192.25 678.749 1192.18 677.995 1192.32 677.268C1192.47 676.54 1192.82 675.872 1193.35 675.348C1193.87 674.823 1194.54 674.466 1195.27 674.322C1196 674.177 1196.75 674.251 1197.44 674.535C1198.12 674.819 1198.71 675.299 1199.12 675.916C1199.53 676.533 1199.75 677.258 1199.75 677.999C1199.75 678.994 1199.36 679.948 1198.65 680.651C1197.95 681.354 1197 681.749 1196 681.749Z" fill="white"/>
</g>
<g opacity="0.6">
<path d="M1233.5 674.438V668.625C1233.5 668.002 1234 667.5 1234.62 667.5H1240.44C1240.75 667.5 1241 667.753 1241 668.062V669.938C1241 670.247 1240.75 670.5 1240.44 670.5H1236.5V674.438C1236.5 674.747 1236.25 675 1235.94 675H1234.06C1233.75 675 1233.5 674.747 1233.5 674.438ZM1247 668.062V669.938C1247 670.247 1247.25 670.5 1247.56 670.5H1251.5V674.438C1251.5 674.747 1251.75 675 1252.06 675H1253.94C1254.25 675 1254.5 674.747 1254.5 674.438V668.625C1254.5 668.002 1254 667.5 1253.38 667.5H1247.56C1247.25 667.5 1247 667.753 1247 668.062ZM1253.94 681H1252.06C1251.75 681 1251.5 681.253 1251.5 681.562V685.5H1247.56C1247.25 685.5 1247 685.753 1247 686.062V687.938C1247 688.247 1247.25 688.5 1247.56 688.5H1253.38C1254 688.5 1254.5 687.998 1254.5 687.375V681.562C1254.5 681.253 1254.25 681 1253.94 681ZM1241 687.938V686.062C1241 685.753 1240.75 685.5 1240.44 685.5H1236.5V681.562C1236.5 681.253 1236.25 681 1235.94 681H1234.06C1233.75 681 1233.5 681.253 1233.5 681.562V687.375C1233.5 687.998 1234 688.5 1234.62 688.5H1240.44C1240.75 688.5 1241 688.247 1241 687.938Z" fill="white"/>
</g>
<defs>
<linearGradient id="paint0_linear_1_185" x1="640" y1="604" x2="640" y2="720" gradientUnits="userSpaceOnUse">
<stop stop-opacity="0"/>
<stop offset="1" stop-opacity="0.2"/>
</linearGradient>
<linearGradient id="paint1_linear_1_185" x1="640" y1="0" x2="640" y2="168" gradientUnits="userSpaceOnUse">
<stop/>
<stop offset="1" stop-opacity="0"/>
</linearGradient>
</defs>
</svg>
